<svg width="967" height="615" fill="none" xmlns="http://www.w3.org/2000/svg"><g filter="url(#filter0_d)"><path fill="#DADADD" d="M1.93 20.605L949.786 4.06l9.163 589.929-947.856 16.545z"/></g><path d="M693.758 386.318c.663.168 1.184.474 1.561.918.378.433.572.96.583 1.58.011.62-.18 1.168-.571 1.645-.382.467-.901.831-1.557 1.092a6.096 6.096 0 01-2.123.398 7.127 7.127 0 01-2.09-.279 6.201 6.201 0 01-1.906-.912l.505-1.119c.466.352.986.613 1.559.783.573.17 1.15.25 1.73.24.839-.015 1.541-.202 2.105-.562.564-.37.84-.865.829-1.485-.009-.53-.231-.931-.666-1.203-.435-.283-1.042-.417-1.822-.403l-2.34.04-.021-1.214 2.235-.039c.67-.012 1.187-.156 1.552-.433.375-.286.559-.674.55-1.164-.009-.55-.262-.981-.758-1.292-.495-.312-1.118-.461-1.868-.448-.49.009-.988.087-1.496.236a5.513 5.513 0 00-1.414.655l-.501-1.221a6.804 6.804 0 011.668-.705 7.155 7.155 0 011.766-.255c.74-.013 1.422.09 2.046.309.623.219 1.119.545 1.487.979.378.434.571.945.582 1.535.009.53-.133.998-.426 1.403-.283.405-.682.712-1.199.921zm14.322 2.6l-5.579.098-1.109 2.644-1.545.027 4.571-10.581 1.485-.026 4.952 10.415-1.575.028-1.2-2.605zm-.546-1.19l-2.355-5.105-2.175 5.184 4.53-.079zm16.843-6.97l.183 10.498-1.47.026-.16-9.194-6.089.106.16 9.194-1.484.026-.184-10.498 9.044-.158zm6.123-.107l1.485-.026.141 8.099 6.068-8.208 1.38-.024.183 10.499-1.47.025-.141-8.083-6.083 8.192-1.379.024-.184-10.498zm20.076 10.271c-1.05.018-2.003-.195-2.861-.64a5.229 5.229 0 01-2.014-1.885c-.494-.812-.75-1.728-.768-2.747-.017-1.02.207-1.939.672-2.757a5.05 5.05 0 011.962-1.955c.841-.485 1.787-.736 2.837-.755.82-.014 1.572.113 2.257.381a4.546 4.546 0 011.761 1.184l-.959.962c-.804-.816-1.796-1.213-2.976-1.193-.78.014-1.482.201-2.105.562a3.84 3.84 0 00-1.46 1.481c-.339.616-.502 1.304-.489 2.063.013.76.2 1.447.561 2.061a3.879 3.879 0 001.51 1.414c.636.339 1.344.501 2.124.488 1.17-.021 2.147-.458 2.933-1.312l.991.928a4.65 4.65 0 01-1.733 1.261c-.675.292-1.423.445-2.243.459zm13.403-7.195c1.25-.022 2.21.241 2.88.79.679.548 1.029 1.367 1.048 2.457.02 1.15-.325 2.031-1.034 2.643-.7.613-1.714.93-3.044.954l-4.335.075-.183-10.498 1.485-.026.064 3.659 3.119-.054zm-.231 5.66c.87-.015 1.531-.222 1.985-.62.463-.408.687-.987.674-1.737-.025-1.44-.937-2.144-2.737-2.112l-2.79.048.079 4.47 2.789-.049zm25.01-9.753l.184 10.498-1.5.026-.082-4.679-6.029.105.082 4.68-1.5.026-.183-10.499 1.5-.026.078 4.515 6.029-.106-.078-4.514 1.499-.026zm13.086 7.648l-5.58.097-1.109 2.645-1.544.027 4.571-10.582 1.484-.026 4.953 10.416-1.575.027-1.2-2.604zm-.546-1.191l-2.355-5.105-2.175 5.184 4.53-.079zm23.72-7.09l.183 10.498-1.469.026-.161-9.194-6.089.107.16 9.193-1.484.026-.184-10.498 9.044-.158zm10.218-.178c1.36-.024 2.435.282 3.226.918.792.637 1.197 1.525 1.217 2.665.02 1.139-.354 2.041-1.123 2.705-.768.663-1.833 1.007-3.192 1.031l-2.595.045.055 3.179-1.499.026-.184-10.498 4.095-.071zm.06 6.014c.95-.016 1.671-.229 2.164-.637.493-.419.733-1.008.719-1.768-.013-.76-.273-1.336-.78-1.727-.507-.401-1.236-.593-2.185-.577l-2.55.045.082 4.709 2.55-.045zm9.255-6.177l1.485-.026.141 8.099 6.068-8.207 1.38-.024.183 10.498-1.47.026-.141-8.084-6.083 8.192-1.38.024-.183-10.498zm22.976 8.795l.022 1.305-7.619.133-.183-10.498 7.409-.13.023 1.305-5.909.103.056 3.225 5.264-.092.023 1.275-5.265.092.059 3.389 6.12-.107zm-5.474-10.211a.764.764 0 01-.544-.2.755.755 0 01-.235-.551.753.753 0 01.216-.559.731.731 0 01.536-.234.733.733 0 01.543.215.753.753 0 01.235.551.756.756 0 01-.215.559.76.76 0 01-.536.219zm2.789-.048a.766.766 0 01-.543-.201.753.753 0 01-.235-.551.756.756 0 01.215-.559.739.739 0 01.536-.234.737.737 0 01.544.215.755.755 0 01.235.551.755.755 0 01-.216.559.762.762 0 01-.536.22zm17.646 11.303l-.149-7.648-3.683 6.44-.69.012-3.905-6.263.133 7.604-1.44.025-.183-10.498 1.23-.022 4.508 7.303 4.19-7.454 1.23-.022.198 10.498-1.439.025z" fill="#D7443F"/><path stroke="#D73F3F" d="M660.964 363.039l248.962-4.346.855 48.993-248.962 4.346z"/><path d="M612.613 84.537l.302 17.277-6.695.117-.192-11.014-41.466.723.12 11.016-6.695.117-.229-17.279 2.447-.043c3.164-.247 5.353-2.781 6.565-7.603 1.211-4.87 1.884-11.699 2.018-20.487l.222-16.206 35.418-.618.77 44.129 7.415-.13zm-37.478-26.638c-.116 7.107-.59 12.996-1.42 17.667-.783 4.67-2.142 7.91-4.079 9.72l28.435-.496-.66-37.866-22.101.386-.175 10.589zm97.568 25.589l.11 6.263-36.571.638-.879-50.392 35.562-.621.11 6.263-28.364.495.27 15.478 25.268-.441.107 6.119-25.268.44.284 16.27 29.371-.512zm65.391-45.284l.879 50.392-7.055.123-.77-44.13-22.316.39-.247 14.767c-.118 6.963-.596 12.612-1.432 16.947-.789 4.335-2.124 7.623-4.005 9.864-1.882 2.193-4.454 3.318-7.718 3.375a18.649 18.649 0 01-4.545-.497l.392-6.416a9.465 9.465 0 002.308.248c2.064-.036 3.706-.88 4.925-2.534 1.218-1.702 2.111-4.214 2.677-7.536.566-3.322.898-7.697.995-13.123l.421-21.25 35.491-.62zm62.789 36.71l-26.78.467-5.323 12.695-7.415.13 21.941-50.792 7.127-.124 23.772 49.993-7.559.132-5.763-12.502zm-2.62-5.716l-11.302-24.502-10.439 24.882 21.741-.38zm79.181-34.003c4.847-.084 9.234.967 13.161 3.155 3.926 2.14 7.027 5.158 9.303 9.055 2.324 3.848 3.528 8.22 3.614 13.115.085 4.895-.966 9.33-3.153 13.305-2.139 3.926-5.133 7.05-8.981 9.374-3.849 2.276-8.197 3.456-13.045 3.54-4.511.08-8.631-.833-12.361-2.736-3.73-1.904-6.777-4.563-9.141-7.978s-3.8-7.327-4.309-11.735l-9.215.161.39 22.317-7.127.124-.88-50.392 7.127-.124.377 21.596 9.287-.162c.453-4.28 1.802-8.12 4.047-11.52a24.457 24.457 0 018.862-8.004c3.614-1.983 7.628-3.014 12.044-3.09zm.786 45.065c3.456-.06 6.561-.93 9.316-2.61 2.803-1.73 4.97-4.072 6.503-7.027 1.58-2.956 2.338-6.282 2.274-9.977-.065-3.696-.938-6.993-2.621-9.892-1.635-2.9-3.883-5.141-6.743-6.724-2.812-1.63-5.947-2.416-9.402-2.356-3.408.06-6.488.954-9.243 2.682-2.755 1.68-4.923 3.998-6.503 6.954-1.533 2.956-2.267 6.281-2.203 9.976.065 3.696.915 6.993 2.549 9.893 1.683 2.9 3.931 5.165 6.744 6.796 2.812 1.583 5.922 2.345 9.329 2.285zm-488.775 50.042l7.127-.124.678 38.874 29.125-39.394 6.623-.116.88 50.392-7.055.123-.678-38.802-29.198 39.324-6.623.116-.879-50.393zm116.279-2.029l.88 50.392-7.199.126-.392-22.461-28.94.505.392 22.461-7.198.125-.88-50.392 7.199-.126.378 21.669 28.94-.505-.379-21.669 7.199-.125zm64.13 5.145l-17.277.302.77 44.129-7.055.123-.77-44.129-17.205.3-.11-6.263 41.538-.725.109 6.263zm59.659 36.837l.11 6.263-36.571.638-.879-50.392 35.562-.621.109 6.263-28.363.495.27 15.478 25.268-.441.107 6.119-25.268.441.284 16.269 29.371-.512zm43.866-44.909c6.527-.114 11.689 1.356 15.487 4.411 3.798 3.054 5.745 7.316 5.84 12.788.096 5.471-1.701 9.799-5.39 12.984-3.689 3.184-8.797 4.834-15.324 4.948l-12.454.217.266 15.262-7.199.126-.879-50.393 19.653-.343zm.288 28.872c4.559-.08 8.022-1.101 10.388-3.062 2.365-2.01 3.516-4.838 3.452-8.486-.063-3.647-1.312-6.41-3.745-8.288-2.434-1.926-5.93-2.849-10.49-2.769l-12.238.214.395 22.604 12.238-.213zm81.765 13.839l.109 6.263-36.57.638-.88-50.392 35.563-.621.109 6.263-28.363.495.27 15.478 25.268-.441.107 6.119-25.268.441.284 16.269 29.371-.512zm47.424 6.013c-5.039.088-9.618-.936-13.736-3.073-4.07-2.185-7.291-5.201-9.663-9.049-2.372-3.895-3.601-8.29-3.687-13.185-.085-4.896.99-9.307 3.226-13.235 2.235-3.975 5.373-7.102 9.414-9.381 4.04-2.327 8.579-3.535 13.618-3.623 3.936-.068 7.547.541 10.834 1.828 3.286 1.239 6.104 3.134 8.453 5.685l-4.601 4.617c-3.861-3.917-8.623-5.826-14.286-5.728-3.743.066-7.112.965-10.106 2.697-2.994 1.733-5.329 4.102-7.005 7.108-1.629 2.956-2.411 6.259-2.348 9.906.064 3.648.962 6.944 2.693 9.891 1.779 2.897 4.195 5.159 7.248 6.786 3.053 1.627 6.451 2.408 10.194 2.343 5.615-.098 10.308-2.197 14.077-6.295l4.758 4.454c-2.258 2.631-5.032 4.648-8.32 6.05-3.24 1.4-6.827 2.135-10.763 2.204zm64.335-34.536c5.999-.105 10.606 1.159 13.82 3.791 3.263 2.632 4.94 6.563 5.031 11.794.096 5.519-1.558 9.749-4.963 12.689-3.358 2.939-8.228 4.464-14.611 4.575l-20.805.364-.879-50.393 7.127-.124.306 17.565 14.974-.261zm-1.11 27.167c4.175-.073 7.35-1.064 9.525-2.974 2.223-1.959 3.302-4.739 3.239-8.338-.12-6.911-4.5-10.291-13.139-10.14l-13.39.233.375 21.453 13.39-.234zm27.367-45.196l7.127-.125.88 50.393-7.127.124-.88-50.392zM303.603 241.938c3.183.808 5.681 2.277 7.494 4.405 1.813 2.081 2.745 4.609 2.797 7.585.052 2.975-.862 5.608-2.742 7.897-1.834 2.24-4.324 3.988-7.47 5.243-3.1 1.206-6.497 1.842-10.192 1.906-3.36.059-6.704-.387-10.033-1.337a29.802 29.802 0 01-9.15-4.377l2.427-5.371a23.316 23.316 0 007.482 3.758c2.751.816 5.518 1.2 8.302 1.151 4.031-.07 7.4-.969 10.106-2.697 2.706-1.775 4.032-4.151 3.98-7.126-.044-2.544-1.11-4.469-3.197-5.777-2.088-1.356-5.004-2.001-8.747-1.936l-11.23.196-.102-5.831 10.726-.187c3.216-.056 5.7-.748 7.453-2.075 1.8-1.375 2.68-3.239 2.639-5.59-.046-2.64-1.258-4.707-3.637-6.202-2.378-1.495-5.367-2.211-8.967-2.148-2.351.041-4.745.419-7.181 1.134a26.315 26.315 0 00-6.786 3.143l-2.407-5.863a32.611 32.611 0 018.006-3.38 34.364 34.364 0 018.476-1.229c3.552-.062 6.825.433 9.82 1.485 2.994 1.052 5.374 2.619 7.139 4.7 1.812 2.081 2.743 4.537 2.793 7.369.044 2.543-.637 4.788-2.043 6.732-1.358 1.944-3.277 3.418-5.756 4.422zm68.744 12.482l-26.78.467-5.323 12.695-7.415.129 21.941-50.79 7.127-.125 23.772 49.993-7.559.132-5.763-12.501zm-2.62-5.715l-11.302-24.503-10.439 24.882 21.741-.379zm55.495-4.786l-10.51.184.387 22.172-7.055.124-.88-50.393 7.055-.123.382 21.885 10.655-.186 15.455-22.161 7.703-.135-17.571 24.719 19.314 25.658-8.206.144-16.729-21.888zm68.538 21.559c-5.087.089-9.69-.935-13.807-3.071-4.119-2.184-7.389-5.224-9.809-9.118-2.372-3.895-3.601-8.267-3.685-13.114-.085-4.847.99-9.259 3.225-13.234 2.283-3.977 5.445-7.104 9.486-9.383 4.04-2.327 8.603-3.535 13.691-3.624 5.039-.088 9.618.961 13.737 3.145 4.117 2.136 7.363 5.152 9.735 9.047 2.371 3.848 3.6 8.219 3.685 13.114.086 4.895-.989 9.331-3.224 13.306-2.236 3.928-5.374 7.055-9.414 9.382-4.04 2.279-8.58 3.462-13.62 3.55zm-.112-6.407c3.696-.064 6.993-.962 9.891-2.693 2.946-1.731 5.234-4.076 6.862-7.032 1.676-3.006 2.482-6.333 2.418-9.98-.063-3.648-.984-6.92-2.763-9.817-1.732-2.947-4.1-5.234-7.105-6.861-2.957-1.629-6.283-2.411-9.979-2.347-3.695.065-7.04.963-10.034 2.696-2.946 1.732-5.257 4.1-6.933 7.106-1.629 2.957-2.411 6.259-2.348 9.906.064 3.648.962 6.945 2.693 9.891 1.779 2.897 4.171 5.16 7.176 6.788 3.053 1.627 6.427 2.408 10.122 2.343zm94.583-46.225l.88 50.392-7.199.126-.392-22.461-28.94.505.392 22.461-7.198.125-.88-50.392 7.199-.126.378 21.669 28.94-.505-.379-21.669 7.199-.125zm72.732-1.27l.879 50.392-7.199.126-.392-22.46-28.939.505.392 22.46-7.199.126-.88-50.392 7.199-.126.378 21.669 28.94-.505-.378-21.669 7.199-.126zm51.801 16.667c5.999-.105 10.606 1.159 13.82 3.791 3.263 2.631 4.94 6.563 5.031 11.794.096 5.519-1.558 9.749-4.963 12.689-3.358 2.939-8.228 4.464-14.611 4.575l-20.805.363-.879-50.392 7.127-.124.306 17.565 14.974-.261zm-1.11 27.167c4.175-.073 7.351-1.064 9.526-2.975 2.222-1.959 3.301-4.738 3.239-8.337-.121-6.911-4.501-10.291-13.139-10.141l-13.39.234.374 21.453 13.39-.234zm27.367-45.196l7.127-.125.88 50.393-7.127.124-.88-50.392zm84.111 48.939l-.713-36.713-17.679 30.913-3.311.058-18.744-30.061.637 36.498-6.911.121-.879-50.393 5.903-.103 21.639 35.052 20.114-35.781 5.903-.103.952 50.392-6.911.12zm35.395-51.025l7.127-.125.679 38.874 29.124-39.394 6.623-.116.88 50.393-7.055.123-.677-38.802-29.198 39.323-6.623.116-.88-50.392z" fill="#262625"/><defs><filter id="filter0_d" x="1.93" y=".06" width="965.019" height="614.474" filterUnits="userSpaceOnUse" color-interpolation-filters="sRGB"><feFlood flood-opacity="0" result="BackgroundImageFix"/><feColorMatrix in="SourceAlpha" values="0 0 0 0 0 0 0 0 0 0 0 0 0 0 0 0 0 0 127 0"/><feOffset dx="4"/><feGaussianBlur stdDeviation="2"/><feColorMatrix values="0 0 0 0 0.792157 0 0 0 0 0.784314 0 0 0 0 0.788235 0 0 0 1 0"/><feBlend in2="BackgroundImageFix" result="effect1_dropShadow"/><feBlend in="SourceGraphic" in2="effect1_dropShadow" result="shape"/></filter></defs></svg>