<svg width="967" height="615" viewBox="0 0 967 615" fill="none" xmlns="http://www.w3.org/2000/svg">
<g filter="url(#filter0_d)">
<rect width="948" height="590" transform="matrix(0.999848 -0.0174524 0.0155306 0.999879 1.92969 20.6052)" fill="#DADADD"/>
</g>
<path d="M693.758 386.318C694.421 386.486 694.942 386.792 695.319 387.236C695.697 387.669 695.891 388.196 695.902 388.816C695.913 389.436 695.722 389.984 695.331 390.461C694.949 390.928 694.43 391.292 693.774 391.553C693.129 391.805 692.421 391.937 691.651 391.951C690.951 391.963 690.254 391.87 689.561 391.672C688.867 391.474 688.232 391.17 687.655 390.76L688.16 389.641C688.626 389.993 689.146 390.254 689.719 390.424C690.292 390.594 690.869 390.674 691.449 390.664C692.288 390.649 692.99 390.462 693.554 390.102C694.118 389.732 694.394 389.237 694.383 388.617C694.374 388.087 694.152 387.686 693.717 387.414C693.282 387.131 692.675 386.997 691.895 387.011L689.555 387.051L689.534 385.837L691.769 385.798C692.439 385.786 692.956 385.642 693.321 385.365C693.696 385.079 693.88 384.691 693.871 384.201C693.862 383.651 693.609 383.22 693.113 382.909C692.618 382.597 691.995 382.448 691.245 382.461C690.755 382.47 690.257 382.548 689.749 382.697C689.252 382.846 688.781 383.064 688.335 383.352L687.834 382.131C688.359 381.821 688.915 381.587 689.502 381.426C690.089 381.266 690.678 381.181 691.268 381.171C692.008 381.158 692.69 381.261 693.314 381.48C693.937 381.699 694.433 382.025 694.801 382.459C695.179 382.893 695.372 383.404 695.383 383.994C695.392 384.524 695.25 384.992 694.957 385.397C694.674 385.802 694.275 386.109 693.758 386.318ZM708.08 388.918L702.501 389.016L701.392 391.66L699.847 391.687L704.418 381.106L705.903 381.08L710.855 391.495L709.28 391.523L708.08 388.918ZM707.534 387.728L705.179 382.623L703.004 387.807L707.534 387.728ZM724.377 380.758L724.56 391.256L723.09 391.282L722.93 382.088L716.841 382.194L717.001 391.388L715.517 391.414L715.333 380.916L724.377 380.758ZM730.5 380.651L731.985 380.625L732.126 388.724L738.194 380.516L739.574 380.492L739.757 390.991L738.287 391.016L738.146 382.933L732.063 391.125L730.684 391.149L730.5 380.651ZM750.576 390.922C749.526 390.94 748.573 390.727 747.715 390.282C746.867 389.827 746.196 389.198 745.701 388.397C745.207 387.585 744.951 386.669 744.933 385.65C744.916 384.63 745.14 383.711 745.605 382.893C746.071 382.064 746.725 381.413 747.567 380.938C748.408 380.453 749.354 380.202 750.404 380.183C751.224 380.169 751.976 380.296 752.661 380.564C753.345 380.822 753.932 381.217 754.422 381.748L753.463 382.71C752.659 381.894 751.667 381.497 750.487 381.517C749.707 381.531 749.005 381.718 748.382 382.079C747.758 382.44 747.271 382.933 746.922 383.56C746.583 384.176 746.42 384.864 746.433 385.623C746.446 386.383 746.633 387.07 746.994 387.684C747.365 388.288 747.868 388.759 748.504 389.098C749.14 389.437 749.848 389.599 750.628 389.586C751.798 389.565 752.775 389.128 753.561 388.274L754.552 389.202C754.081 389.751 753.504 390.171 752.819 390.463C752.144 390.755 751.396 390.908 750.576 390.922ZM763.979 383.727C765.229 383.705 766.189 383.968 766.859 384.517C767.538 385.065 767.888 385.884 767.907 386.974C767.927 388.124 767.582 389.005 766.873 389.617C766.173 390.23 765.159 390.547 763.829 390.571L759.494 390.646L759.311 380.148L760.796 380.122L760.86 383.781L763.979 383.727ZM763.748 389.387C764.618 389.372 765.279 389.165 765.733 388.767C766.196 388.359 766.42 387.78 766.407 387.03C766.382 385.59 765.47 384.886 763.67 384.918L760.88 384.966L760.959 389.436L763.748 389.387ZM788.758 379.634L788.942 390.132L787.442 390.158L787.36 385.479L781.331 385.584L781.413 390.264L779.913 390.29L779.73 379.791L781.23 379.765L781.308 384.28L787.337 384.174L787.259 379.66L788.758 379.634ZM801.844 387.282L796.264 387.379L795.155 390.024L793.611 390.051L798.182 379.469L799.666 379.443L804.619 389.859L803.044 389.886L801.844 387.282ZM801.298 386.091L798.943 380.986L796.768 386.17L801.298 386.091ZM825.018 379.001L825.201 389.499L823.732 389.525L823.571 380.331L817.482 380.438L817.642 389.631L816.158 389.657L815.974 379.159L825.018 379.001ZM835.236 378.823C836.596 378.799 837.671 379.105 838.462 379.741C839.254 380.378 839.659 381.266 839.679 382.406C839.699 383.545 839.325 384.447 838.556 385.111C837.788 385.774 836.723 386.118 835.364 386.142L832.769 386.187L832.824 389.366L831.325 389.392L831.141 378.894L835.236 378.823ZM835.296 384.837C836.246 384.821 836.967 384.608 837.46 384.2C837.953 383.781 838.193 383.192 838.179 382.432C838.166 381.672 837.906 381.096 837.399 380.705C836.892 380.304 836.163 380.112 835.214 380.128L832.664 380.173L832.746 384.882L835.296 384.837ZM844.551 378.66L846.036 378.634L846.177 386.733L852.245 378.526L853.625 378.502L853.808 389L852.338 389.026L852.197 380.942L846.114 389.134L844.734 389.158L844.551 378.66ZM867.527 387.455L867.549 388.76L859.93 388.893L859.747 378.395L867.156 378.265L867.179 379.57L861.27 379.673L861.326 382.898L866.59 382.806L866.613 384.081L861.348 384.173L861.407 387.562L867.527 387.455ZM862.053 377.244C861.843 377.248 861.661 377.181 861.509 377.044C861.356 376.896 861.278 376.713 861.274 376.493C861.27 376.273 861.342 376.087 861.49 375.934C861.637 375.781 861.816 375.703 862.026 375.7C862.236 375.696 862.417 375.768 862.569 375.915C862.722 376.062 862.8 376.246 862.804 376.466C862.808 376.686 862.736 376.872 862.589 377.025C862.441 377.168 862.262 377.241 862.053 377.244ZM864.842 377.196C864.632 377.199 864.451 377.132 864.299 376.995C864.146 376.848 864.068 376.664 864.064 376.444C864.06 376.224 864.132 376.038 864.279 375.885C864.426 375.733 864.605 375.655 864.815 375.651C865.025 375.647 865.206 375.719 865.359 375.866C865.512 376.014 865.59 376.197 865.594 376.417C865.597 376.637 865.526 376.824 865.378 376.976C865.231 377.119 865.052 377.192 864.842 377.196ZM882.488 388.499L882.339 380.851L878.656 387.291L877.966 387.303L874.061 381.04L874.194 388.644L872.754 388.669L872.571 378.171L873.801 378.149L878.309 385.452L882.499 377.998L883.729 377.976L883.927 388.474L882.488 388.499Z" fill="#D7443F"/>
<rect x="660.964" y="363.039" width="249" height="49" transform="rotate(-1 660.964 363.039)" stroke="#D73F3F"/>
<path d="M612.613 84.5366L612.915 101.814L606.22 101.931L606.028 90.9165L564.562 91.6403L564.682 102.656L557.987 102.773L557.758 85.4941L560.205 85.4514C563.369 85.2041 565.558 82.6696 566.77 77.8477C567.981 72.9778 568.654 66.149 568.788 57.3613L569.01 41.155L604.428 40.5368L605.198 84.666L612.613 84.5366ZM575.135 57.8986C575.019 65.0057 574.545 70.8949 573.715 75.5661C572.932 80.2365 571.573 83.4767 569.636 85.2868L598.071 84.7904L597.411 46.9242L575.31 47.31L575.135 57.8986ZM672.703 83.4877L672.813 89.7508L636.242 90.3891L635.363 39.9968L670.925 39.376L671.035 45.6391L642.671 46.1342L642.941 61.6118L668.209 61.1708L668.316 67.2898L643.048 67.7309L643.332 84.0004L672.703 83.4877ZM738.094 38.2036L738.973 88.5959L731.918 88.7191L731.148 44.5898L708.832 44.9793L708.585 59.7459C708.467 66.709 707.989 72.3582 707.153 76.6935C706.364 81.0279 705.029 84.3157 703.148 86.5569C701.266 88.75 698.694 89.8751 695.43 89.9321C693.942 89.958 692.427 89.7925 690.885 89.4353L691.277 83.0195C692.048 83.1981 692.818 83.2807 693.585 83.2673C695.649 83.2312 697.291 82.3865 698.51 80.7329C699.728 79.0314 700.621 76.5194 701.187 73.1971C701.753 69.8747 702.085 65.5002 702.182 60.0737L702.603 38.8231L738.094 38.2036ZM800.883 74.9134L774.103 75.3808L768.78 88.0757L761.365 88.2051L783.306 37.4144L790.433 37.29L814.205 87.2828L806.646 87.4147L800.883 74.9134ZM798.263 69.1982L786.961 44.6957L776.522 69.5777L798.263 69.1982ZM877.444 35.1952C882.291 35.1106 886.678 36.1622 890.605 38.35C894.531 40.4898 897.632 43.5081 899.908 47.405C902.232 51.253 903.436 55.6246 903.522 60.5199C903.607 65.4152 902.556 69.8502 900.369 73.8249C898.23 77.7509 895.236 80.8756 891.388 83.1991C887.539 85.4746 883.191 86.6547 878.343 86.7393C873.832 86.8181 869.712 85.9058 865.982 84.0026C862.252 82.0994 859.205 79.4402 856.841 76.0249C854.477 72.6097 853.041 68.6982 852.532 64.2904L843.317 64.4512L843.707 86.7678L836.58 86.8922L835.7 36.4999L842.827 36.3755L843.204 57.9722L852.491 57.8101C852.944 53.5295 854.293 49.6894 856.538 46.2897C858.831 42.8892 861.785 40.2212 865.4 38.2858C869.014 36.3025 873.028 35.2722 877.444 35.1952ZM878.23 80.2603C881.686 80.2 884.791 79.3297 887.546 77.6493C890.349 75.9201 892.516 73.578 894.049 70.6228C895.629 67.6667 896.387 64.341 896.323 60.6456C896.258 56.9501 895.385 53.6529 893.702 50.7538C892.067 47.8539 889.819 45.6128 886.959 44.0304C884.147 42.3993 881.012 41.6139 877.557 41.6742C874.149 41.7337 871.069 42.6276 868.314 44.3559C865.559 46.0362 863.391 48.3544 861.811 51.3105C860.278 54.2657 859.544 57.591 859.608 61.2864C859.673 64.9818 860.523 68.2795 862.157 71.1794C863.84 74.0785 866.088 76.3436 868.901 77.9748C871.713 79.5579 874.823 80.3198 878.23 80.2603ZM389.455 130.302L396.582 130.178L397.26 169.052L426.385 129.658L433.008 129.542L433.888 179.934L426.833 180.057L426.155 141.255L396.957 180.579L390.334 180.695L389.455 130.302ZM505.734 128.273L506.614 178.665L499.415 178.791L499.023 156.33L470.083 156.835L470.475 179.296L463.277 179.421L462.397 129.029L469.596 128.903L469.974 150.572L498.914 150.067L498.535 128.398L505.734 128.273ZM569.864 133.418L552.587 133.72L553.357 177.849L546.302 177.972L545.532 133.843L528.327 134.143L528.217 127.88L569.755 127.155L569.864 133.418ZM629.523 170.255L629.633 176.518L593.062 177.156L592.183 126.764L627.745 126.143L627.854 132.406L599.491 132.901L599.761 148.379L625.029 147.938L625.136 154.057L599.868 154.498L600.152 170.767L629.523 170.255ZM673.389 125.346C679.916 125.232 685.078 126.702 688.876 129.757C692.674 132.811 694.621 137.073 694.716 142.545C694.812 148.016 693.015 152.344 689.326 155.529C685.637 158.713 680.529 160.363 674.002 160.477L661.548 160.694L661.814 175.956L654.615 176.082L653.736 125.689L673.389 125.346ZM673.677 154.218C678.236 154.138 681.699 153.117 684.065 151.156C686.43 149.146 687.581 146.318 687.517 142.67C687.454 139.023 686.205 136.26 683.772 134.382C681.338 132.456 677.842 131.533 673.282 131.613L661.044 131.827L661.439 154.431L673.677 154.218ZM755.442 168.057L755.551 174.32L718.981 174.958L718.101 124.566L753.664 123.945L753.773 130.208L725.41 130.703L725.68 146.181L750.948 145.74L751.055 151.859L725.787 152.3L726.071 168.569L755.442 168.057ZM802.866 174.07C797.827 174.158 793.248 173.134 789.13 170.997C785.06 168.812 781.839 165.796 779.467 161.948C777.095 158.053 775.866 153.658 775.78 148.763C775.695 143.867 776.77 139.456 779.006 135.528C781.241 131.553 784.379 128.426 788.42 126.147C792.46 123.82 796.999 122.612 802.038 122.524C805.974 122.456 809.585 123.065 812.872 124.352C816.158 125.591 818.976 127.486 821.325 130.037L816.724 134.654C812.863 130.737 808.101 128.828 802.438 128.926C798.695 128.992 795.326 129.891 792.332 131.623C789.338 133.356 787.003 135.725 785.327 138.731C783.698 141.687 782.916 144.99 782.979 148.637C783.043 152.285 783.941 155.581 785.672 158.528C787.451 161.425 789.867 163.687 792.92 165.314C795.973 166.941 799.371 167.722 803.114 167.657C808.729 167.559 813.422 165.46 817.191 161.362L821.949 165.816C819.691 168.447 816.917 170.464 813.629 171.866C810.389 173.266 806.802 174.001 802.866 174.07ZM867.201 139.534C873.2 139.429 877.807 140.693 881.021 143.325C884.284 145.957 885.961 149.888 886.052 155.119C886.148 160.638 884.494 164.868 881.089 167.808C877.731 170.747 872.861 172.272 866.478 172.383L845.673 172.747L844.794 122.354L851.921 122.23L852.227 139.795L867.201 139.534ZM866.091 166.701C870.266 166.628 873.441 165.637 875.616 163.727C877.839 161.768 878.918 158.988 878.855 155.389C878.735 148.478 874.355 145.098 865.716 145.249L852.326 145.482L852.701 166.935L866.091 166.701ZM893.458 121.505L900.585 121.38L901.465 171.773L894.338 171.897L893.458 121.505ZM303.603 241.938C306.786 242.746 309.284 244.215 311.097 246.343C312.91 248.424 313.842 250.952 313.894 253.928C313.946 256.903 313.032 259.536 311.152 261.825C309.318 264.065 306.828 265.813 303.682 267.068C300.582 268.274 297.185 268.91 293.49 268.974C290.13 269.033 286.786 268.587 283.457 267.637C280.128 266.687 277.078 265.228 274.307 263.26L276.734 257.889C278.971 259.578 281.466 260.831 284.216 261.647C286.967 262.463 289.734 262.847 292.518 262.798C296.549 262.728 299.918 261.829 302.624 260.101C305.33 258.326 306.656 255.95 306.604 252.975C306.56 250.431 305.494 248.506 303.407 247.198C301.319 245.842 298.403 245.197 294.66 245.262L283.43 245.458L283.328 239.627L294.054 239.44C297.27 239.384 299.754 238.692 301.507 237.365C303.307 235.99 304.187 234.126 304.146 231.775C304.1 229.135 302.888 227.068 300.509 225.573C298.131 224.078 295.142 223.362 291.542 223.425C289.191 223.466 286.797 223.844 284.361 224.559C281.973 225.273 279.711 226.32 277.575 227.702L275.168 221.839C277.687 220.355 280.355 219.228 283.174 218.459C285.993 217.689 288.819 217.28 291.65 217.23C295.202 217.168 298.475 217.663 301.47 218.715C304.464 219.767 306.844 221.334 308.609 223.415C310.421 225.496 311.352 227.952 311.402 230.784C311.446 233.327 310.765 235.572 309.359 237.516C308.001 239.46 306.082 240.934 303.603 241.938ZM372.347 254.42L345.567 254.887L340.244 267.582L332.829 267.711L354.77 216.921L361.897 216.796L385.669 266.789L378.11 266.921L372.347 254.42ZM369.727 248.705L358.425 224.202L347.986 249.084L369.727 248.705ZM425.222 243.919L414.712 244.103L415.099 266.275L408.044 266.399L407.164 216.006L414.219 215.883L414.601 237.768L425.256 237.582L440.711 215.421L448.414 215.286L430.843 240.005L450.157 265.663L441.951 265.807L425.222 243.919ZM493.76 265.478C488.673 265.567 484.07 264.543 479.953 262.407C475.834 260.223 472.564 257.183 470.144 253.289C467.772 249.394 466.543 245.022 466.459 240.175C466.374 235.328 467.449 230.916 469.684 226.941C471.967 222.964 475.129 219.837 479.17 217.558C483.21 215.231 487.773 214.023 492.861 213.934C497.9 213.846 502.479 214.895 506.598 217.079C510.715 219.215 513.961 222.231 516.333 226.126C518.704 229.974 519.933 234.345 520.018 239.24C520.104 244.135 519.029 248.571 516.794 252.546C514.558 256.474 511.42 259.601 507.38 261.928C503.34 264.207 498.8 265.39 493.76 265.478ZM493.648 259.071C497.344 259.007 500.641 258.109 503.539 256.378C506.485 254.647 508.773 252.302 510.401 249.346C512.077 246.34 512.883 243.013 512.819 239.366C512.756 235.718 511.835 232.446 510.056 229.549C508.324 226.602 505.956 224.315 502.951 222.688C499.994 221.059 496.668 220.277 492.972 220.341C489.277 220.406 485.932 221.304 482.938 223.037C479.992 224.769 477.681 227.137 476.005 230.143C474.376 233.1 473.594 236.402 473.657 240.049C473.721 243.697 474.619 246.994 476.35 249.94C478.129 252.837 480.521 255.1 483.526 256.728C486.579 258.355 489.953 259.136 493.648 259.071ZM588.231 212.846L589.111 263.238L581.912 263.364L581.52 240.903L552.58 241.408L552.972 263.869L545.774 263.994L544.894 213.602L552.093 213.476L552.471 235.145L581.411 234.64L581.032 212.971L588.231 212.846ZM660.963 211.576L661.842 261.968L654.643 262.094L654.251 239.634L625.312 240.139L625.704 262.599L618.505 262.725L617.625 212.333L624.824 212.207L625.202 233.876L654.142 233.371L653.764 211.702L660.963 211.576ZM712.764 228.243C718.763 228.138 723.37 229.402 726.584 232.034C729.847 234.665 731.524 238.597 731.615 243.828C731.711 249.347 730.057 253.577 726.652 256.517C723.294 259.456 718.424 260.981 712.041 261.092L691.236 261.455L690.357 211.063L697.484 210.939L697.79 228.504L712.764 228.243ZM711.654 255.41C715.829 255.337 719.005 254.346 721.18 252.435C723.402 250.476 724.481 247.697 724.419 244.098C724.298 237.187 719.918 233.807 711.28 233.957L697.89 234.191L698.264 255.644L711.654 255.41ZM739.021 210.214L746.148 210.089L747.028 260.482L739.901 260.606L739.021 210.214ZM823.132 259.153L822.419 222.44L804.74 253.353L801.429 253.411L782.685 223.35L783.322 259.848L776.411 259.969L775.532 209.576L781.435 209.473L803.074 244.525L823.188 208.744L829.091 208.641L830.043 259.033L823.132 259.153ZM858.527 208.128L865.654 208.003L866.333 246.877L895.457 207.483L902.08 207.367L902.96 257.76L895.905 257.883L895.228 219.081L866.03 258.404L859.407 258.52L858.527 208.128Z" fill="#262625"/>
<defs>
<filter id="filter0_d" x="1.92969" y="0.0602722" width="965.019" height="614.474" filterUnits="userSpaceOnUse" color-interpolation-filters="sRGB">
<feFlood flood-opacity="0" result="BackgroundImageFix"/>
<feColorMatrix in="SourceAlpha" type="matrix" values="0 0 0 0 0 0 0 0 0 0 0 0 0 0 0 0 0 0 127 0"/>
<feOffset dx="4"/>
<feGaussianBlur stdDeviation="2"/>
<feColorMatrix type="matrix" values="0 0 0 0 0.792157 0 0 0 0 0.784314 0 0 0 0 0.788235 0 0 0 1 0"/>
<feBlend mode="normal" in2="BackgroundImageFix" result="effect1_dropShadow"/>
<feBlend mode="normal" in="SourceGraphic" in2="effect1_dropShadow" result="shape"/>
</filter>
</defs>
</svg>
